0
SECTION
2
ENTITIES
0
LWPOLYLINE
8
CUT
90
22
70
1
10
0.000
20
-8.000
10
6.000
20
0.000
10
16.000
20
0.000
10
16.000
20
-30.000
10
38.000
20
-30.000
10
38.000
20
-21.000
10
41.000
20
-21.000
10
41.000
20
-40.000
10
89.000
20
-40.000
10
89.000
20
-21.000
10
92.000
20
-21.000
10
92.000
20
-30.000
10
114.000
20
-30.000
10
114.000
20
0.000
10
124.000
20
0.000
10
130.000
20
-8.000
10
130.000
20
-66.000
10
103.000
20
-66.000
10
103.000
20
-93.000
10
27.000
20
-93.000
10
27.000
20
-66.000
10
0.000
20
-66.000
0
ENDSEC
0
EOF
